<svg id="twitter" xmlns="http://www.w3.org/2000/svg" viewBox="0 0 24 24"><path d="M19.18 8.05c.01.15.01.3.01.45 0 4.59-3.49 9.88-9.88 9.88-1.89 0-3.73-.54-5.32-1.56a6.958 6.958 0 0 0 5.14-1.44 3.47 3.47 0 0 1-3.24-2.41c.52.1 1.06.08 1.57-.06a3.469 3.469 0 0 1-2.78-3.4v-.04c.48.27 1.02.42 1.58.43-1.53-1.02-2-3.05-1.07-4.63a9.842 9.842 0 0 0 7.15 3.63 3.48 3.48 0 0 1 1-3.32c1.4-1.31 3.6-1.25 4.91.15.78-.15 1.52-.44 2.2-.84-.26.8-.8 1.49-1.53 1.92.69-.08 1.36-.27 1.99-.55-.47.7-1.05 1.31-1.73 1.8Z" style="fill:#fff"/><path style="fill:none" d="M0 0h24v24H0z"/></svg>