<?xml version="1.0" encoding="UTF-8"?>
<svg id="behance" xmlns="http://www.w3.org/2000/svg" viewBox="0 0 24 24">
  <defs>
    <style>
      .cls-1 {
        fill: #fff;
      }

      .cls-2 {
        fill: none;
      }
    </style>
  </defs>
  <path class="cls-1" d="m8.59,6.5c.5,0,.97.04,1.4.15.43.08.78.24,1.09.43s.54.47.7.82c.15.35.24.78.24,1.24,0,.54-.12,1.01-.39,1.36-.24.35-.62.66-1.09.89.66.19,1.17.54,1.47,1.01.31.47.5,1.05.5,1.71,0,.54-.12,1.01-.31,1.4-.19.39-.5.74-.85.97-.35.24-.78.43-1.24.54-.47.12-.93.19-1.4.19H3.5s0-10.71,0-10.71h5.09Zm-.31,4.35c.43,0,.78-.12,1.05-.31s.39-.54.39-.97c0-.24-.04-.47-.12-.62-.08-.15-.19-.27-.35-.39-.15-.08-.31-.15-.5-.19s-.39-.04-.62-.04h-2.25v2.53s2.41,0,2.41,0Zm.12,4.59c.24,0,.47-.04.66-.08.19-.04.39-.12.54-.24s.27-.24.39-.43c.08-.19.15-.43.15-.7,0-.54-.15-.93-.47-1.21-.31-.24-.74-.35-1.24-.35h-2.56v2.99h2.52Z"/>
  <path class="cls-1" d="m15.9,15.4c.31.31.78.47,1.4.47.43,0,.82-.12,1.13-.31.31-.24.5-.47.58-.7h1.9c-.31.93-.78,1.59-1.4,2.02-.62.39-1.36.62-2.25.62-.62,0-1.17-.12-1.67-.31-.5-.19-.89-.47-1.24-.85-.35-.35-.62-.78-.78-1.28-.19-.5-.27-1.05-.27-1.67,0-.58.08-1.13.27-1.63s.47-.93.82-1.32c.35-.35.78-.66,1.24-.85.5-.19,1.01-.31,1.63-.31.66,0,1.24.12,1.75.39.5.27.89.58,1.21,1.05.31.43.54.93.7,1.47.08.54.12,1.09.08,1.71h-5.63c0,.63.23,1.21.54,1.53Zm2.45-4.08c-.27-.27-.7-.43-1.21-.43-.35,0-.62.08-.85.19s-.39.27-.54.43c-.15.15-.24.35-.27.54s-.08.35-.08.5h3.5c-.08-.58-.27-.97-.54-1.24Zm-3.42-4.08h4.35v1.05h-4.35v-1.05Z"/>
  <rect class="cls-2" width="24" height="24"/>
</svg>