<?xml version="1.0" encoding="UTF-8"?>
<svg id="instagram" xmlns="http://www.w3.org/2000/svg" viewBox="0 0 24 24">
  <defs>
    <style>
      .cls-1 {
        fill: #fff;
      }

      .cls-2 {
        fill: none;
      }
    </style>
  </defs>
  <g id="Symbol">
    <g>
      <path class="cls-1" d="m7.05,4.84c-.5.19-.92.45-1.34.87-.42.42-.68.84-.87,1.34-.19.48-.31,1.03-.35,1.83s-.05,1.06-.05,3.11,0,2.31.05,3.11c.04.8.17,1.35.35,1.83.19.5.45.92.87,1.34.42.42.84.68,1.34.87.48.19,1.03.31,1.83.35.8.04,1.06.05,3.11.05s2.31,0,3.11-.05c.8-.04,1.35-.17,1.83-.35.5-.19.92-.45,1.34-.87.42-.42.68-.84.87-1.34.19-.48.31-1.03.35-1.83.04-.8.05-1.06.05-3.11s0-2.31-.05-3.11-.17-1.35-.35-1.83c-.19-.49-.45-.92-.87-1.34-.42-.42-.84-.68-1.34-.87-.48-.19-1.03-.31-1.83-.35s-1.06-.05-3.11-.05-2.31,0-3.11.05c-.81.03-1.36.16-1.84.35Zm8,1.01c.74.03,1.14.16,1.4.26.35.14.61.3.87.57.26.26.43.52.57.87.1.27.23.67.26,1.4.04.8.04,1.04.04,3.05s0,2.26-.04,3.05c-.03.74-.16,1.14-.26,1.4-.14.35-.3.61-.57.87-.26.26-.52.43-.87.57-.27.1-.67.23-1.4.26-.8.04-1.04.04-3.05.04s-2.26,0-3.05-.04c-.74-.03-1.14-.16-1.4-.26-.35-.14-.61-.3-.87-.57-.26-.26-.43-.52-.57-.87-.1-.27-.23-.67-.26-1.4-.04-.8-.04-1.04-.04-3.05s0-2.26.04-3.05c.03-.74.16-1.14.26-1.4.14-.35.3-.61.57-.87.26-.26.52-.43.87-.57.27-.1.67-.23,1.4-.26.8-.04,1.04-.04,3.05-.04s2.26,0,3.05.04Z"/>
      <path class="cls-1" d="m8.12,12c0,2.14,1.74,3.88,3.88,3.88s3.88-1.74,3.88-3.88-1.74-3.88-3.88-3.88-3.88,1.74-3.88,3.88Zm6.4,0c0,1.39-1.13,2.52-2.52,2.52s-2.52-1.13-2.52-2.52,1.13-2.52,2.52-2.52,2.52,1.13,2.52,2.52Z"/>
      <circle class="cls-1" cx="16.04" cy="7.97" r=".91"/>
    </g>
  </g>
  <rect class="cls-2" width="24" height="24"/>
</svg>