<?xml version="1.0" encoding="UTF-8"?>
<svg id="github" xmlns="http://www.w3.org/2000/svg" viewBox="0 0 24 24">
  <defs>
    <style>
      .cls-1 {
        fill: #fff;
        fill-rule: evenodd;
      }

      .cls-2 {
        fill: none;
      }
    </style>
  </defs>
  <path class="cls-1" d="m12.01,4c-4.5,0-8.14,3.67-8.14,8.2,0,3.63,2.33,6.7,5.57,7.78.4.08.55-.18.55-.39,0-.19-.01-.84-.01-1.52-2.26.49-2.74-.98-2.74-.98-.36-.95-.9-1.19-.9-1.19-.74-.5.05-.5.05-.5.82.05,1.25.84,1.25.84.73,1.25,1.9.9,2.37.68.07-.53.28-.9.51-1.1-1.81-.19-3.71-.9-3.71-4.05,0-.9.32-1.63.84-2.2-.08-.2-.36-1.05.08-2.17,0,0,.69-.22,2.24.84.66-.18,1.35-.27,2.04-.27.69,0,1.39.1,2.04.27,1.55-1.06,2.24-.84,2.24-.84.44,1.13.16,1.97.08,2.17.53.57.84,1.3.84,2.2,0,3.15-1.9,3.84-3.72,4.05.3.26.55.75.55,1.52,0,1.1-.01,1.98-.01,2.25,0,.22.15.48.55.39,3.24-1.09,5.57-4.16,5.57-7.78.01-4.54-3.64-8.2-8.13-8.2Z"/>
  <rect class="cls-2" width="24" height="24"/>
</svg>