<?xml version="1.0" encoding="UTF-8"?>
<svg id="linkedin" xmlns="http://www.w3.org/2000/svg" viewBox="0 0 24 24">
  <defs>
    <style>
      .cls-1 {
        fill: #fff;
        fill-rule: evenodd;
      }

      .cls-2 {
        fill: none;
      }
    </style>
  </defs>
  <path class="cls-1" d="m17.9,4.42H6.1c-.93,0-1.68.75-1.68,1.68v11.8c0,.93.75,1.68,1.68,1.68h11.8c.93,0,1.68-.75,1.68-1.68V6.1c0-.93-.75-1.68-1.68-1.68Zm-8.9,13.06h-2.26v-7.31h2.26v7.31Zm-1.14-8.26c-.74,0-1.34-.61-1.34-1.35s.6-1.35,1.34-1.35,1.34.61,1.34,1.35-.6,1.35-1.34,1.35Zm9.62,8.26h-2.25v-3.84c0-1.05-.4-1.63-1.24-1.63-.9,0-1.37.61-1.37,1.63v3.84h-2.17v-7.31h2.17v.99s.65-1.21,2.2-1.21,2.66.95,2.66,2.9v4.63Z"/>
  <rect class="cls-2" width="24" height="24"/>
</svg>