<?xml version="1.0" encoding="UTF-8"?>
<svg id="twitter" xmlns="http://www.w3.org/2000/svg" viewBox="0 0 24 24">
  <defs>
    <style>
      .cls-1 {
        fill: #fff;
      }

      .cls-2 {
        fill: none;
      }
    </style>
  </defs>
  <path class="cls-1" d="m19.18,8.05c.01.15.01.3.01.45,0,4.59-3.49,9.88-9.88,9.88h0c-1.89,0-3.73-.54-5.32-1.56.27.03.55.05.83.05,1.56,0,3.08-.52,4.31-1.49-1.49-.03-2.79-1-3.24-2.41.52.1,1.06.08,1.57-.06-1.62-.33-2.78-1.75-2.78-3.4v-.04c.48.27,1.02.42,1.58.43-1.53-1.02-2-3.05-1.07-4.63,1.76,2.17,4.36,3.49,7.15,3.63-.28-1.21.1-2.47,1-3.32,1.4-1.31,3.6-1.25,4.91.15.78-.15,1.52-.44,2.2-.84-.26.8-.8,1.49-1.53,1.92.69-.08,1.36-.27,1.99-.55-.47.7-1.05,1.31-1.73,1.8h0Z"/>
  <rect class="cls-2" width="24" height="24"/>
</svg>